/* XPM */
static char *fb0553b2ea364bf8fba13486262010afjcGfy9pmEKuJOYAV[] = {
/* columns rows colors chars-per-pixel */
"32 32 171 2 ",
"   c None",
".  c #060606",
"X  c #080707",
"o  c #070708",
"O  c #0B0B0B",
"+  c #090A0A",
"@  c #120C07",
"#  c #130F0B",
"$  c #17150E",
"%  c #1A110A",
"&  c #100F10",
"*  c #0D1315",
"=  c #0F1B1F",
"-  c #0F1619",
";  c #141314",
":  c #181715",
">  c #1C1A13",
",  c #141619",
"<  c #191718",
"1  c #121A1E",
"2  c #1D1B1C",
"3  c #300805",
"4  c #27190C",
"5  c #2C1C0E",
"6  c #311F0F",
"7  c #211E15",
"8  c #2E1E11",
"9  c #211F1F",
"0  c #281D1D",
"q  c #301F11",
"w  c #262215",
"e  c #24221C",
"r  c #28241B",
"t  c #332112",
"y  c #342D1B",
"u  c #3E2917",
"i  c #3F361E",
"p  c #121E22",
"a  c #211F20",
"s  c #132125",
"d  c #15252B",
"f  c #1B262A",
"g  c #1A262A",
"h  c #1A2D34",
"j  c #1C3137",
"k  c #1D343C",
"l  c #252324",
"z  c #282627",
"x  c #2F2C26",
"c  c #292728",
"v  c #2B292A",
"b  c #3A3524",
"n  c #343228",
"m  c #243135",
"M  c #293336",
"N  c #323232",
"B  c #383637",
"V  c #373A3C",
"C  c #3C3B3C",
"Z  c #490A05",
"A  c #670600",
"S  c #412916",
"D  c #50331B",
"F  c #5F2D29",
"G  c #463D24",
"H  c #523835",
"J  c #653C39",
"K  c #4E492D",
"L  c #4A422F",
"P  c #554A29",
"I  c #4F4B38",
"U  c #534C33",
"Y  c #5C5334",
"T  c #61542D",
"R  c #605A38",
"E  c #655731",
"W  c #7B6B3C",
"Q  c #1F3841",
"!  c #233B44",
"~  c #283E45",
"^  c #26434C",
"/  c #3E494E",
"(  c #264550",
")  c #2A4955",
"_  c #2C4D59",
"`  c #284752",
"'  c #31515C",
"]  c #3D555D",
"[  c #325663",
"{  c #345966",
"}  c #355E6C",
"|  c #35606F",
" . c #366372",
".. c #396675",
"X. c #396778",
"o. c #3C697A",
"O. c #434242",
"+. c #484747",
"@. c #4D4D4D",
"#. c #524847",
"$. c #45575E",
"%. c #545454",
"&. c #585757",
"*. c #5E5E5E",
"=. c #6E5A58",
"-. c #656040",
";. c #6E6740",
":. c #6F6840",
">. c #716642",
",. c #736C45",
"<. c #7C744D",
"1. c #726D56",
"2. c #406B7A",
"3. c #44707E",
"4. c #676667",
"5. c #696A6A",
"6. c #706F6F",
"7. c #757575",
"8. c #7B7B7B",
"9. c #86743F",
"0. c #8C7A43",
"q. c #877845",
"w. c #968348",
"e. c #8E845B",
"r. c #988E58",
"t. c #9A8B55",
"y. c #9F955D",
"u. c #AE9652",
"i. c #AF9856",
"p. c #A59054",
"a. c #B79E55",
"s. c #9D9362",
"d. c #A59B64",
"f. c #ADA265",
"g. c #B5A969",
"h. c #BEB26D",
"j. c #C9AF5F",
"k. c #CFB361",
"l. c #D7BA67",
"z. c #C1B571",
"x. c #CCBF76",
"c. c #C5B978",
"v. c #D9C06C",
"b. c #D1C47C",
"n. c #D9CC7F",
"m. c #E8C86C",
"M. c #F4D97C",
"N. c #457484",
"B. c #47798A",
"V. c #4E8394",
"C. c #548A9C",
"Z. c #518697",
"A. c #858484",
"S. c #8A8989",
"D. c #968D8C",
"F. c #969898",
"G. c #909191",
"H. c #A09F9F",
"J. c #A2A4A5",
"K. c #B6B7B6",
"L. c #DED084",
"P. c #E4D685",
"I. c #EADB8A",
"U. c #F6DD82",
"Y. c #F3E48F",
"T. c #F9E285",
"R. c #F6E791",
"E. c #FEEE94",
"W. c #FFF196",
"Q. c #FFF499",
"!. c #C0C0C0",
/* pixels */
"                B C O.+.@.%.%.%.%.%.@.O.B       X O             ",
"          O c 8.S.S.A.8.7.7.7.8.8.8.7.8.8.7.%.N e , O           ",
"    N *.q.Z.7.B v v c z z z l z z z z z v N C C B c 2 , O       ",
"    C 5.&.C v c c c c c z z z c z c c z c c z z c c c c , X     ",
"    N #.v c c c c c c c c c c c z c c c c c c c c c c c l O     ",
"  %.A.O.v v c c c c c c c c c c c c c c c c c c c c c c z 9 O   ",
"O N &.v c c c c c c c z c z c c c c c c c c c c c c c c c z ;   ",
"& 5.4.c c c c c c c c z z c c z z c c c c c c c c c c c c c 2 O ",
"< &.a 2 , z c z 2 l z & ; 2 2 r > l z z l c c c c c c c c z l X ",
"    O l $ , a , b b e O K U q.j.0.> 7 $ # z c c c c c c c 9 O X ",
"    O , , o $ w ;.h.z.y.L.R.h.q.q.P 0.L , c z c c c c z c ; X   ",
"          O :.K f.E.W.W.W.E.P.Y R x.l.T 7 2 9 > 2 9 l z z O     ",
"          O r.h.P.W.E.W.E.W.W.c.b.W.U.l.y ; y u.0.$ 2 v 2 O     ",
"          O d.Q.E.R.R.E.R.E.W.W.E.E.T.a.7 ; W k.w.8 p < #       ",
"          O r.Q.I.s.b.R.d.c.W.E.W.E.M.m.i.x : r 9 2 O   O       ",
"            b h.R.R.b.c.L.R.W.W.E.U.l.p.L O X # ; O             ",
"              > -.,.x z I <.<.<.>.Y b < h Q h *                 ",
"              . h h < < a O < - _ h o d m ~ Q d *               ",
"              . s ( C *.3 #.H.M V.[ s = { Z.{ } _ -             ",
"            = s s 1 @.F.Z =.K.~ N.d _ h { Z.......^ O           ",
"          O ` h ' h B 8.A J J.f h ( X.` k Z.C.B. . .s           ",
"          p  .j ' 2.M *.A F J.1 `  .X.} s N.C.V.o.X.) O         ",
"          j  .k ` V.m D.H D.K.m N.X.X. .h ' C.V.X.{ _ *         ",
"        O l ~ f j ..g 5.B 5.S.g } _ Q j p p ] $.+.~ v $         ",
"        O G ;.I @ ; < 2 a 9 2 2 ; O 9 9 2 ; n 1.e.t.u.i         ",
"          y 9.W ; & < a l z z z # 2 z z 9 l , ,.g.w.E >         ",
"              O ; z 9 < ; , ; O O l c c z c z , O               ",
"              O < c c c c c 2 X O l c c c c c < O               ",
"              O < v v v c v 9 + O z v c z z c < O               ",
"                & a a a a l < X o p a a l l l ;                 ",
"              @ 4 q q 8 q 8 4 X S D u q q q q #                 ",
"            O @ 4 4 4 4 4 4 % % S t 5 5 t 6 6 %                 "
};
