/* XPM */
static char *bd8632cc593848c6a45c4fccddec8cca8aDcMSpopHqzFqqc[] = {
/* columns rows colors chars-per-pixel */
"32 32 132 2 ",
"   c None",
".  c #1F2834",
"X  c #272A2D",
"o  c #252B33",
"O  c #323333",
"+  c #2F3B4B",
"@  c #313E4E",
"#  c #323F50",
"$  c #354354",
"%  c #384759",
"&  c #3A4A5C",
"*  c #3D4F61",
"=  c #3F5163",
"-  c #4A4F50",
";  c #484F58",
":  c #4D575C",
">  c #414F61",
",  c #425464",
"<  c #4A5564",
"1  c #435569",
"2  c #495768",
"3  c #46596C",
"4  c #485969",
"5  c #475C70",
"6  c #485E73",
"7  c #4C6174",
"8  c #4E6478",
"9  c #546676",
"0  c #5B6774",
"q  c #556B7C",
"w  c #5C6C7B",
"e  c #58707F",
"r  c #606C72",
"t  c #606E7D",
"y  c #60717D",
"u  c #9F7078",
"i  c #5A6E81",
"p  c #5C7484",
"a  c #637383",
"s  c #697584",
"d  c #6B7B85",
"f  c #637D8D",
"g  c #6F7B8A",
"h  c #7C7D81",
"j  c #66808F",
"k  c #6A808E",
"l  c #7D868F",
"z  c #658090",
"x  c #6C8493",
"c  c #6F8998",
"v  c #758594",
"b  c #7A8694",
"n  c #718997",
"m  c #7D8A97",
"M  c #738C9A",
"N  c #788F9C",
"B  c #7795A3",
"V  c #7C94A2",
"C  c #7B9CAA",
"Z  c #85898D",
"A  c #8D949E",
"S  c #8694A2",
"D  c #8499A6",
"F  c #8A9BA6",
"G  c #879CA9",
"H  c #8A9DAA",
"J  c #939EAB",
"K  c #A698A2",
"L  c #84A2AF",
"P  c #8CA1AE",
"I  c #95A3AE",
"U  c #98A3AD",
"Y  c #86A3B0",
"T  c #8DA6B4",
"R  c #94A5B2",
"E  c #9AA6B1",
"W  c #93A9B6",
"Q  c #9BAAB5",
"!  c #95ACB9",
"~  c #99AFBB",
"^  c #9EB1BD",
"/  c #A0A7AF",
"(  c #A5A9AF",
")  c #A2ABB4",
"_  c #B1AAB3",
"`  c #A6B4BF",
"'  c #ACB1B8",
"]  c #A2B6C1",
"[  c #AAB6C1",
"{  c #ADBBC5",
"}  c #B3BDC6",
"|  c #B8BDC6",
" . c #B3BFC8",
".. c #B9C0C7",
"X. c #B4C0CA",
"o. c #BAC4CD",
"O. c #BCC6D0",
"+. c #BEC8D1",
"@. c #C2CCD5",
"#. c #C8CED4",
"$. c #C5CED8",
"%. c #C7D0D9",
"&. c #CCD5DD",
"*. c #CFD8DF",
"=. c #D5DDE4",
"-. c #D3DAE2",
";. c #D8DFE6",
":. c #DCE3E9",
">. c #DDE3EA",
",. c #DDE4EB",
"<. c #DEE4EB",
"1. c #DFE6EC",
"2. c #DCE2EA",
"3. c #E0E6ED",
"4. c #E1E8EF",
"5. c #E2E8EF",
"6. c #E3E9EF",
"7. c #E6EBF2",
"8. c #E6ECF2",
"9. c #E6ECF3",
"0. c #E9EFF5",
"q. c #E8EEF4",
"w. c #EBF0F6",
"e. c #EBF1F7",
"r. c #EDF2F8",
"t. c #EEF3F9",
"y. c #EFF4FA",
"u. c #EEF3F9",
"i. c #F1F5FB",
"p. c #F2F6FC",
"a. c #F2F7FC",
"s. c #F1F5FB",
/* pixels */
"                                                                ",
"              E E V     B B B B                                 ",
"               ...` G ! T C Y T R D                             ",
"              { I Q ! ! T Y ! ! ! L f x V I D                   ",
"                ` R ] { ! T ^ ` ~ T x F o.+.[                   ",
"                P { o.' X.X.( / %.! x P  .{ }                   ",
"                +...; $ c n % @ A *.N k b U                     ",
"              *.o.l O . p = < X o } { n F                       ",
"            >.>.0 w r 0 d y 0 - : w o.{ S                       ",
"            >.*.2 $ g Z O Z U g y & E $.o.                      ",
"              &.J y o.#.h ( O.s $ > ) $.+.[                     ",
"                  @.-.-.u K $.X.J Q +.@.O. .                    ",
"                    o.@._ | o.X.[ }  .}           o.=.=.        ",
"                    1.0.3.>.@.F f n             i f b J         ",
"        # $       R >.u.0.&.H w p N D n       6 7 8 3 *         ",
"      + @ $ 4 V S G :.1.%.@.x , , f c f       H O.$.Q t         ",
"        + @ 7 j j G *.@.2.@.q = $ , f f       e.p.p.7. .        ",
"              f p D *.6.u.{ q 4 $ & p         -.$.=.7.$.        ",
"                    4.t.u.{ j p q e           i 8 i R O.        ",
"                    &.u.y.X.j z z z f         a i 6 5 S         ",
"                    +.y.i.$.z z z z z f       =.=.J 1 2         ",
"                  N +.y.u.=.n j z z z f       9.p.3.w %         ",
"                  M o.u.t.q.G f z z z j f   q E 9.,.m           ",
"                  B R :.r.w.W z z z z j n o.p 7 [ $.            ",
"                  V V O.-.%.V z z z z f H 0.S * v               ",
"                    c Q @.{ c j z z z z Q *.g %                 ",
"              = *   , 9 U { V f z z z z Q                       ",
"            @ $ $ $ #       D c f f p                           ",
"                              7 3 ,                             ",
"                        % & = = $ +                             ",
"                        $ $ % $                                 ",
"                                                                "
};
